#!OML:ASF H:\LiuWeirdWalks\Patient Classification 1\Patient 1\Session 1\male.ASF
:FULLY-SPECIFIED
:DEGREES
1237
root 3.65408 18.211 32.4324 1.55084 1.99293 -1.71475
lowerback 6.86852 2.73325e-005 -6.00165
upperback 1.09644 -0.422157 0.628319
thorax -2.66903 -0.153521 4.06585
lowerneck -24.533 0.970055 5.02099
upperneck 32.9844 0.228212 -2.59642
head 15.8342 0.353141 -1.93719
rclavicle -4.27387e-015 -2.78299e-015
rhumerus -24.9651 -25.7153 -7.5419
rradius 28.869
rwrist -5.98357
rhand -23.4333 -2.33128
rfingers 7.12502
rthumb 3.02465 -32.2896
lclavicle -4.27387e-015 -2.78299e-015
lhumerus -26.5583 14.9714 18.9964
lradius 35.1622
lwrist 27.865
lhand -30.5338 0.536335
lfingers 7.12502
lthumb -3.83294 30.4816
rfemur -13.3123 -4.27302 13.0657
rtibia 35.6774
rfoot -12.6407 -16.6655
rtoes -6.75939
lfemur -9.60981 -1.47789 -18.8751
ltibia 22.8657
lfoot -6.48475 13.7445
ltoes -8.75152
1238
root 3.64317 18.2063 32.4669 1.51907 2.12978 -1.84389
lowerback 6.83208 -0.0071192 -5.84877
upperback 1.11273 -0.416779 0.655547
thorax -2.63331 -0.153614 4.00695
lowerneck -24.5316 0.913472 4.92529
upperneck 32.9877 0.157329 -2.52
head 15.8313 0.323114 -1.90207
rclavicle -6.36111e-015 -7.15625e-015
rhumerus -25.0461 -25.5837 -7.52079
rradius 28.8686
rwrist -6.20205
rhand -23.5353 -2.30427
rfingers 7.12502
rthumb 2.92616 -32.2639
lclavicle -6.36111e-015 -7.15625e-015
lhumerus -26.4568 14.9766 19.0382
lradius 35.1427
lwrist 27.9316
lhand -30.573 0.565516
lfingers 7.12502
lthumb -3.87085 30.5101
rfemur -13.0908 -4.14627 13.2837
rtibia 34.4526
rfoot -12.9255 -16.7418
rtoes -7.13708
lfemur -9.57756 -1.50692 -18.702
ltibia 23.08
lfoot -6.66224 13.717
ltoes -8.88185
1239
root 3.631 18.2015 32.5004 1.51003 2.25543 -1.90109
lowerback 6.76355 -0.0569998 -5.86322
upperback 1.14686 -0.477296 0.707414
thorax -2.55211 -0.186771 4.07358
lowerneck -24.577 0.930518 4.91621
upperneck 32.9904 0.189888 -2.53513
head 15.8446 0.33311 -1.90079
rclavicle 5.01931e-015 5.1684e-015
rhumerus -24.8545 -25.4137 -7.66252
rradius 28.7896
rwrist -6.64598
rhand -23.7789 -2.28646
rfingers 7.12502
rthumb 2.69093 -32.2492
lclavicle 5.01931e-015 5.1684e-015
lhumerus -26.5437 15.1206 18.9953
lradius 35.1743
lwrist 27.9009
lhand -30.5693 0.568311
lfingers 7.12502
lthumb -3.86726 30.513
rfemur -12.908 -4.00335 13.425
rtibia 33.3155
rfoot -13.1313 -16.8362
rtoes -7.40508
lfemur -9.56525 -1.53764 -18.6011
ltibia 23.2797
lfoot -6.83335 13.6918
ltoes -8.98583
1240
root 3.61796 18.1968 32.5333 1.51191 2.37493 -1.89619
lowerback 6.67081 -0.134746 -5.99356
upperback 1.19912 -0.580825 0.768221
thorax -2.43212 -0.242172 4.21809
lowerneck -24.6532 0.997779 4.96869
upperneck 32.9993 0.290922 -2.60994
head 15.872 0.370371 -1.92237
rclavicle 1.19271e-015 -3.06128e-014
rhumerus -24.4862 -25.2378 -7.91115
rradius 28.6611
rwrist -7.23293
rhand -24.1115 -2.29302
rfingers 7.12502
rthumb 2.36972 -32.2596
lclavicle 1.19271e-015 -3.06128e-014
lhumerus -26.7455 15.359 18.8987
lradius 35.2472
lwrist 27.8174
lhand -30.5502 0.586119
lfingers 7.12502
lthumb -3.84878 30.5311
rfemur -12.7547 -3.84982 13.4917
rtibia 32.2923
rfoot -13.2812 -16.9223
rtoes -7.56299
lfemur -9.54715 -1.57549 -18.5668
ltibia 23.4424
lfoot -6.98377 13.6716
ltoes -9.0812
1241
root 3.60429 18.192 32.5653 1.51634 2.49329 -1.86638
lowerback 6.57933 -0.203854 -6.12445
upperback 1.25042 -0.673191 0.81351
thorax -2.31463 -0.292223 4.34542
lowerneck -24.7191 1.05878 5.02661
upperneck 33.0039 0.382314 -2.68849
head 15.8946 0.403716 -1.94827
rclavicle -7.90169e-015 6.36111e-015
rhumerus -24.1625 -25.0805 -8.1393
rradius 28.5507
rwrist -7.79658
rhand -24.4312 -2.31777
rfingers 7.12502
rthumb 2.06092 -32.2876
lclavicle -7.90169e-015 6.36111e-015
lhumerus -26.9046 15.5776 18.8168
lradius 35.3124
lwrist 27.74
lhand -30.5363 0.588371
lfingers 7.12502
lthumb -3.83535 30.5336
rfemur -12.628 -3.69338 13.5257
rtibia 31.3955
rfoot -13.3427 -16.9916
rtoes -7.62361
lfemur -9.51546 -1.60727 -18.5576
ltibia 23.566
lfoot -7.11648 13.6393
ltoes -9.16652
1242
root 3.58979 18.1875 32.5964 1.56158 2.55745 -1.73265
lowerback 6.43984 -0.261381 -6.37358
upperback 1.30613 -0.755072 0.835506
thorax -2.16508 -0.33786 4.51336
lowerneck -24.8135 1.13668 5.10577
upperneck 33.0039 0.495913 -2.78861
head 15.9231 0.44555 -1.98272
rclavicle 1.27222e-014 0
rhumerus -23.7911 -24.9778 -8.38955
rradius 28.4189
rwrist -8.35618
rhand -24.7608 -2.32462
rfingers 7.12502
rthumb 1.74257 -32.2973
lclavicle 1.27222e-014 0
lhumerus -27.0819 15.8407 18.7234
lradius 35.3874
lwrist 27.6503
lhand -30.5084 0.552344
lfingers 7.12502
lthumb -3.80843 30.4981
rfemur -12.5779 -3.45937 13.453
rtibia 30.6091
rfoot -13.2601 -17.0727
rtoes -7.60598
lfemur -9.51516 -1.60868 -18.6548
ltibia 23.6649
lfoot -7.21755 13.6238
ltoes -9.27078
1243
root 3.57489 18.1827 32.6264 1.60534 2.61404 -1.5568
lowerback 6.33283 -0.238785 -6.51154
upperback 1.3185 -0.727587 0.783708
thorax -2.09465 -0.326196 4.53343
lowerneck -24.8276 1.10085 5.05422
upperneck 33.0079 0.458552 -2.77143
head 15.9257 0.426215 -1.97414
rclavicle -1.83876e-015 4.37326e-015
rhumerus -23.833 -24.9303 -8.39253
rradius 28.4082
rwrist -8.57442
rhand -24.8887 -2.32968
rfingers 7.12502
rthumb 1.61907 -32.3033
lclavicle -1.83876e-015 4.37326e-015
lhumerus -26.9584 15.8915 18.7812
lradius 35.3886
lwrist 27.7548
lhand -30.5638 0.446113
lfingers 7.12502
lthumb -3.8619 30.3909
rfemur -12.5398 -3.22379 13.3295
rtibia 29.9255
rfoot -13.0219 -17.1211
rtoes -7.59848
lfemur -9.505 -1.58812 -18.7969
ltibia 23.7435
lfoot -7.31161 13.592
ltoes -9.37196
1244
root 3.55951 18.1776 32.6559 1.60746 2.68014 -1.45528
lowerback 6.2637 -0.220872 -6.56075
upperback 1.33914 -0.70214 0.751691
thorax -2.03754 -0.315807 4.52467
lowerneck -24.8315 1.06832 5.00996
upperneck 33.0139 0.427771 -2.76525
head 15.9274 0.408944 -1.97023
rclavicle -1.60519e-014 2.78299e-015
rhumerus -23.8743 -24.8793 -8.3986
rradius 28.4046
rwrist -8.76551
rhand -24.996 -2.32152
rfingers 7.12502
rthumb 1.51548 -32.2959
lclavicle -1.60519e-014 2.78299e-015
lhumerus -26.8487 15.9511 18.8335
lradius 35.3927
lwrist 27.8129
lhand -30.5937 0.322531
lfingers 7.12502
lthumb -3.8908 30.2668
rfemur -12.4648 -2.99227 13.2843
rtibia 29.338
rfoot -12.598 -17.1357
rtoes -7.5711
lfemur -9.44165 -1.55036 -18.8543
ltibia 23.7979
lfoot -7.41267 13.5318
ltoes -9.4536
1245
root 3.54377 18.172 32.6847 1.60609 2.75812 -1.31224
lowerback 6.19932 -0.197664 -6.62555
upperback 1.36567 -0.670991 0.705807
thorax -1.97767 -0.302779 4.5099
lowerneck -24.8566 1.02426 4.94399
upperneck 33.015 0.385757 -2.75249
head 15.9309 0.385099 -1.96204
rclavicle 7.60351e-015 1.59028e-015
rhumerus -23.9536 -24.8139 -8.39038
rradius 28.4589
rwrist -8.97604
rhand -25.0948 -2.37079
rfingers 7.12502
rthumb 1.42005 -32.3458
lclavicle 7.60351e-015 1.59028e-015
lhumerus -26.7043 16.0298 18.9052
lradius 35.3781
lwrist 27.8202
lhand -30.5987 0.1762
lfingers 7.12502
lthumb -3.89559 30.1203
rfemur -12.3909 -2.79371 13.1899
rtibia 28.8377
rfoot -11.931 -17.0899
rtoes -7.3528
lfemur -9.36587 -1.5065 -18.9552
ltibia 23.8343
lfoot -7.50915 13.4486
ltoes -9.52908
